<svg width="19" height="19" viewBox="0 0 19 19" fill="none" xmlns="http://www.w3.org/2000/svg">
<g id="back_arrow">
<path id="Vector" d="M13.3508 2.34191C13.2626 2.25112 13.1578 2.17908 13.0423 2.12993C12.9269 2.08078 12.8032 2.05548 12.6782 2.05548C12.5533 2.05548 12.4295 2.08078 12.3141 2.12993C12.1987 2.17908 12.0939 2.25112 12.0056 2.34191L5.69003 8.82344C5.61958 8.8956 5.56368 8.98131 5.52554 9.07566C5.4874 9.17002 5.46777 9.27116 5.46777 9.37331C5.46777 9.47547 5.4874 9.57661 5.52554 9.67097C5.56368 9.76532 5.61958 9.85103 5.69003 9.92319L12.0056 16.4047C12.378 16.7869 12.9784 16.7869 13.3508 16.4047C13.7232 16.0225 13.7232 15.4064 13.3508 15.0242L7.84843 9.36941L13.3584 3.71465C13.7232 3.34027 13.7232 2.7163 13.3508 2.34191Z" fill="#1E232C" stroke="#1E232C" stroke-width="0.2"/>
</g>
</svg>
